<svg id="visual" viewBox="0 0 900 600" width="900" height="600" xmlns="http://www.w3.org/2000/svg" xmlns:xlink="http://www.w3.org/1999/xlink" version="1.1"><rect x="0" y="0" width="900" height="600" fill="#001220"></rect><path d="M0 408L18.8 407.8C37.7 407.7 75.3 407.3 112.8 404.7C150.3 402 187.7 397 225.2 394.5C262.7 392 300.3 392 337.8 391.8C375.3 391.7 412.7 391.3 450.2 395C487.7 398.7 525.3 406.3 562.8 409.5C600.3 412.7 637.7 411.3 675.2 411.5C712.7 411.7 750.3 413.3 787.8 411.5C825.3 409.7 862.7 404.3 881.3 401.7L900 399L900 601L881.3 601C862.7 601 825.3 601 787.8 601C750.3 601 712.7 601 675.2 601C637.7 601 600.3 601 562.8 601C525.3 601 487.7 601 450.2 601C412.7 601 375.3 601 337.8 601C300.3 601 262.7 601 225.2 601C187.7 601 150.3 601 112.8 601C75.3 601 37.7 601 18.8 601L0 601Z" fill="#fa7268"></path><path d="M0 423L18.8 427.8C37.7 432.7 75.3 442.3 112.8 446.3C150.3 450.3 187.7 448.7 225.2 448.3C262.7 448 300.3 449 337.8 448.5C375.3 448 412.7 446 450.2 443.8C487.7 441.7 525.3 439.3 562.8 435.5C600.3 431.7 637.7 426.3 675.2 425.2C712.7 424 750.3 427 787.8 428.5C825.3 430 862.7 430 881.3 430L900 430L900 601L881.3 601C862.7 601 825.3 601 787.8 601C750.3 601 712.7 601 675.2 601C637.7 601 600.3 601 562.8 601C525.3 601 487.7 601 450.2 601C412.7 601 375.3 601 337.8 601C300.3 601 262.7 601 225.2 601C187.7 601 150.3 601 112.8 601C75.3 601 37.7 601 18.8 601L0 601Z" fill="#ef5f67"></path><path d="M0 470L18.8 469.2C37.7 468.3 75.3 466.7 112.8 468.7C150.3 470.7 187.7 476.3 225.2 475.8C262.7 475.3 300.3 468.7 337.8 466.3C375.3 464 412.7 466 450.2 467.5C487.7 469 525.3 470 562.8 472.2C600.3 474.3 637.7 477.7 675.2 480.2C712.7 482.7 750.3 484.3 787.8 484.3C825.3 484.3 862.7 482.7 881.3 481.8L900 481L900 601L881.3 601C862.7 601 825.3 601 787.8 601C750.3 601 712.7 601 675.2 601C637.7 601 600.3 601 562.8 601C525.3 601 487.7 601 450.2 601C412.7 601 375.3 601 337.8 601C300.3 601 262.7 601 225.2 601C187.7 601 150.3 601 112.8 601C75.3 601 37.7 601 18.8 601L0 601Z" fill="#e34c67"></path><path d="M0 516L18.8 517.2C37.7 518.3 75.3 520.7 112.8 519.7C150.3 518.7 187.7 514.3 225.2 512.5C262.7 510.7 300.3 511.3 337.8 511.3C375.3 511.3 412.7 510.7 450.2 511.8C487.7 513 525.3 516 562.8 515.5C600.3 515 637.7 511 675.2 511.3C712.7 511.7 750.3 516.3 787.8 518.8C825.3 521.3 862.7 521.7 881.3 521.8L900 522L900 601L881.3 601C862.7 601 825.3 601 787.8 601C750.3 601 712.7 601 675.2 601C637.7 601 600.3 601 562.8 601C525.3 601 487.7 601 450.2 601C412.7 601 375.3 601 337.8 601C300.3 601 262.7 601 225.2 601C187.7 601 150.3 601 112.8 601C75.3 601 37.7 601 18.8 601L0 601Z" fill="#d53867"></path><path d="M0 544L18.8 544.7C37.7 545.3 75.3 546.7 112.8 547.8C150.3 549 187.7 550 225.2 549.5C262.7 549 300.3 547 337.8 546.2C375.3 545.3 412.7 545.7 450.2 546.7C487.7 547.7 525.3 549.3 562.8 549.8C600.3 550.3 637.7 549.7 675.2 549.7C712.7 549.7 750.3 550.3 787.8 551.3C825.3 552.3 862.7 553.7 881.3 554.3L900 555L900 601L881.3 601C862.7 601 825.3 601 787.8 601C750.3 601 712.7 601 675.2 601C637.7 601 600.3 601 562.8 601C525.3 601 487.7 601 450.2 601C412.7 601 375.3 601 337.8 601C300.3 601 262.7 601 225.2 601C187.7 601 150.3 601 112.8 601C75.3 601 37.7 601 18.8 601L0 601Z" fill="#c62368"></path></svg>